M48
; DRILL file {KiCad (5.1.6)-1} date 09/22/20 19:16:18
; FORMAT={-:-/ absolute / inch / decimal}
; #@! TF.CreationDate,2020-09-22T19:16:18-05:00
; #@! TF.GenerationSoftware,Kicad,Pcbnew,(5.1.6)-1
FMAT,2
INCH
T1C0.0315
T2C0.0320
T3C0.0350
T4C0.0393
T5C0.0400
T6C0.0500
T7C0.1300
%
G90
G05
T1
X3.3Y-2.975
X3.3Y-3.125
X3.3Y-2.5
X3.3Y-2.65
X3.3Y-3.475
X3.3Y-3.625
X2.2Y-3.475
X2.2Y-3.625
X2.675Y-3.8
X2.825Y-3.8
T2
X2.9Y-4.45
X2.9Y-4.55
X4.25Y-3.45
X4.55Y-3.45
X3.4Y-4.8
X3.4Y-5.1
X2.15Y-4.8
X2.15Y-5.1
X3.15Y-4.45
X3.15Y-4.55
X1.9Y-4.45
X1.9Y-4.55
X4.1Y-3.3
X4.4Y-3.3
X4.25Y-3.15
X4.55Y-3.15
X2.15Y-4.45
X2.15Y-4.55
X2.4Y-4.45
X2.4Y-4.55
X4.1Y-3.9
X4.4Y-3.9
X4.25Y-2.55
X4.55Y-2.55
X4.25Y-2.85
X4.55Y-2.85
X2.4Y-5.75
X2.4Y-5.85
X2.4Y-5.95
X3.65Y-4.45
X3.65Y-4.55
X2.65Y-4.45
X2.65Y-4.55
X3.15Y-4.8
X3.15Y-5.1
X1.9Y-3.65
X1.9Y-3.95
X3.65Y-4.8
X3.65Y-5.1
X4.25Y-1.95
X4.55Y-1.95
X2.6Y-2.8
X2.6Y-2.9
X2.6Y-3.0
X2.6Y-3.1
X2.6Y-3.2
X2.6Y-3.3
X2.6Y-3.4
X2.6Y-3.5
X2.9Y-2.8
X2.9Y-2.9
X2.9Y-3.0
X2.9Y-3.1
X2.9Y-3.2
X2.9Y-3.3
X2.9Y-3.4
X2.9Y-3.5
X3.4Y-4.45
X3.4Y-4.55
X4.1Y-2.7
X4.4Y-2.7
X2.4Y-4.8
X2.4Y-5.1
X4.1Y-2.4
X4.4Y-2.4
X4.1Y-1.8
X4.4Y-1.8
X4.1Y-2.1
X4.4Y-2.1
X1.9Y-3.25
X1.9Y-3.35
X2.65Y-4.8
X2.65Y-5.1
X4.1Y-3.0
X4.4Y-3.0
X4.25Y-2.25
X4.55Y-2.25
X4.25Y-4.05
X4.55Y-4.05
X4.1Y-3.6
X4.4Y-3.6
X1.9Y-4.8
X1.9Y-5.1
X4.25Y-3.75
X4.55Y-3.75
X2.9Y-4.8
X2.9Y-5.1
T3
X2.45Y-5.55
X2.55Y-5.55
X2.65Y-5.55
X2.75Y-5.55
X2.85Y-5.55
X2.95Y-5.55
X3.05Y-5.55
X3.15Y-5.55
X1.8Y-6.05
X1.9Y-6.05
X2.0Y-6.05
X3.5Y-6.4
X3.6Y-6.4
X3.7Y-6.4
X3.8Y-6.4
X3.9Y-6.4
X4.0Y-6.4
X4.1Y-6.4
X4.2Y-6.4
X4.3Y-6.4
X4.4Y-6.4
X4.5Y-6.4
X3.75Y-2.5
X3.75Y-2.6
X3.75Y-2.7
X3.75Y-2.8
X3.75Y-2.9
X3.75Y-3.0
X3.75Y-3.1
X3.75Y-3.2
X3.2Y-6.75
X3.3Y-6.75
X3.4Y-6.75
X3.5Y-6.75
X3.6Y-6.75
X3.7Y-6.75
X3.8Y-6.75
X3.9Y-6.75
X4.0Y-6.75
X4.1Y-6.75
X4.2Y-6.75
X4.3Y-6.75
X4.4Y-6.75
X4.5Y-6.75
X1.6Y-2.55
X1.7Y-2.55
X1.8Y-2.55
X2.25Y-3.15
X2.25Y-3.25
X5.1Y-6.0
X5.1Y-6.1
X5.1Y-6.2
X5.1Y-6.3
X5.1Y-6.4
X5.1Y-6.5
X5.1Y-6.6
X5.1Y-6.7
X1.6Y-2.9
X1.7Y-2.9
X1.8Y-2.9
X4.85Y-6.0
X4.85Y-6.1
X4.85Y-6.2
X4.85Y-6.3
X4.85Y-6.4
X4.85Y-6.5
X4.85Y-6.6
X4.85Y-6.7
T4
X4.8221Y-3.5615
X4.8221Y-3.7385
X5.0779Y-3.5615
X5.0779Y-3.7385
X4.8221Y-1.4615
X4.8221Y-1.6385
X5.0779Y-1.4615
X5.0779Y-1.6385
X4.8221Y-3.9115
X4.8221Y-4.0885
X5.0779Y-3.9115
X5.0779Y-4.0885
X4.8221Y-3.2115
X4.8221Y-3.3885
X5.0779Y-3.2115
X5.0779Y-3.3885
X4.8221Y-2.8615
X4.8221Y-3.0385
X5.0779Y-2.8615
X5.0779Y-3.0385
X4.8221Y-2.1615
X4.8221Y-2.3385
X5.0779Y-2.1615
X5.0779Y-2.3385
X4.8221Y-1.8115
X4.8221Y-1.9885
X5.0779Y-1.8115
X5.0779Y-1.9885
X4.8221Y-2.5115
X4.8221Y-2.6885
X5.0779Y-2.5115
X5.0779Y-2.6885
T5
X2.45Y-5.55
X1.8Y-6.05
X3.5Y-6.4
X3.75Y-3.2
X3.2Y-6.75
X1.6Y-2.55
X2.484Y-1.65
X2.538Y-1.55
X2.592Y-1.65
X2.646Y-1.55
X2.7Y-1.65
X2.754Y-1.55
X2.808Y-1.65
X2.862Y-1.55
X2.916Y-1.65
X2.25Y-3.25
X5.1Y-6.7
X1.6Y-2.9
X4.85Y-6.7
T6
X1.55Y-6.75
X1.65Y-6.35
X1.75Y-6.75
X2.05Y-6.75
X2.15Y-6.35
X2.25Y-6.75
X2.9Y-5.85
X3.3Y-5.75
X3.3Y-5.95
T7
X2.207Y-1.6
X3.193Y-1.6
T0
M30
