G04 #@! TF.GenerationSoftware,KiCad,Pcbnew,(5.1.6)-1*
G04 #@! TF.CreationDate,2020-09-22T19:14:08-05:00*
G04 #@! TF.ProjectId,P1Arturo,50314172-7475-4726-9f2e-6b696361645f,rev?*
G04 #@! TF.SameCoordinates,Original*
G04 #@! TF.FileFunction,Copper,L2,Bot*
G04 #@! TF.FilePolarity,Positive*
%FSLAX46Y46*%
G04 Gerber Fmt 4.6, Leading zero omitted, Abs format (unit mm)*
G04 Created by KiCad (PCBNEW (5.1.6)-1) date 2020-09-22 19:14:08*
%MOMM*%
%LPD*%
G01*
G04 APERTURE LIST*
G04 #@! TA.AperFunction,ComponentPad*
%ADD10C,5.080000*%
G04 #@! TD*
G04 #@! TA.AperFunction,ComponentPad*
%ADD11C,1.998980*%
G04 #@! TD*
G04 #@! TA.AperFunction,ComponentPad*
%ADD12O,2.641600X1.320800*%
G04 #@! TD*
G04 #@! TA.AperFunction,ComponentPad*
%ADD13O,1.506220X3.014980*%
G04 #@! TD*
G04 #@! TA.AperFunction,ComponentPad*
%ADD14C,2.032000*%
G04 #@! TD*
G04 #@! TA.AperFunction,ComponentPad*
%ADD15O,1.320800X2.641600*%
G04 #@! TD*
G04 #@! TA.AperFunction,Conductor*
%ADD16C,1.200000*%
G04 #@! TD*
G04 APERTURE END LIST*
D10*
X81102200Y-40640000D03*
X56057800Y-40640000D03*
D11*
X72694800Y-39370000D03*
X69951600Y-39370000D03*
X67208400Y-39370000D03*
X64465200Y-39370000D03*
X74066400Y-41910000D03*
X71323200Y-41910000D03*
X68580000Y-41910000D03*
X65836800Y-41910000D03*
X63093600Y-41910000D03*
D12*
X66040000Y-88900000D03*
X66040000Y-86360000D03*
X66040000Y-83820000D03*
X66040000Y-81280000D03*
X66040000Y-78740000D03*
X66040000Y-76200000D03*
X66040000Y-73660000D03*
X66040000Y-71120000D03*
X73660000Y-71120000D03*
X73660000Y-73660000D03*
X73660000Y-76200000D03*
X73660000Y-78740000D03*
X73660000Y-81280000D03*
X73660000Y-83820000D03*
X73660000Y-86360000D03*
X73660000Y-88900000D03*
X60960000Y-151130000D03*
X60960000Y-148590000D03*
X60960000Y-146050000D03*
D13*
X128978660Y-41617900D03*
X122481340Y-41617900D03*
X128978660Y-37122100D03*
X122481340Y-37122100D03*
X128978660Y-50507900D03*
X122481340Y-50507900D03*
X128978660Y-46012100D03*
X122481340Y-46012100D03*
X128978660Y-59397900D03*
X122481340Y-59397900D03*
X128978660Y-54902100D03*
X122481340Y-54902100D03*
X128978660Y-68287900D03*
X122481340Y-68287900D03*
X128978660Y-63792100D03*
X122481340Y-63792100D03*
X128978660Y-77177900D03*
X122481340Y-77177900D03*
X128978660Y-72682100D03*
X122481340Y-72682100D03*
X128978660Y-86067900D03*
X122481340Y-86067900D03*
X128978660Y-81572100D03*
X122481340Y-81572100D03*
X128978660Y-94957900D03*
X122481340Y-94957900D03*
X128978660Y-90462100D03*
X122481340Y-90462100D03*
X128978660Y-103847900D03*
X122481340Y-103847900D03*
X128978660Y-99352100D03*
X122481340Y-99352100D03*
D14*
X57150000Y-171450000D03*
X54610000Y-161290000D03*
X52070000Y-171450000D03*
X44450000Y-171450000D03*
X41910000Y-161290000D03*
X39370000Y-171450000D03*
X83820000Y-146050000D03*
X73660000Y-148590000D03*
X83820000Y-151130000D03*
X107950000Y-49530000D03*
X115570000Y-49530000D03*
X107950000Y-57150000D03*
X115570000Y-57150000D03*
X107950000Y-64770000D03*
X115570000Y-64770000D03*
X107950000Y-72390000D03*
X115570000Y-72390000D03*
X107950000Y-80010000D03*
X115570000Y-80010000D03*
X107950000Y-87630000D03*
X115570000Y-87630000D03*
X107950000Y-95250000D03*
X115570000Y-95250000D03*
X107950000Y-102870000D03*
X115570000Y-102870000D03*
X104140000Y-45720000D03*
X111760000Y-45720000D03*
X104140000Y-53340000D03*
X111760000Y-53340000D03*
X104140000Y-60960000D03*
X111760000Y-60960000D03*
X104140000Y-68580000D03*
X111760000Y-68580000D03*
X104140000Y-76200000D03*
X111760000Y-76200000D03*
X104140000Y-83820000D03*
X111760000Y-83820000D03*
X104140000Y-91440000D03*
X111760000Y-91440000D03*
X104140000Y-99060000D03*
X111760000Y-99060000D03*
X48260000Y-129540000D03*
X48260000Y-121920000D03*
X54610000Y-129540000D03*
X54610000Y-121920000D03*
X60960000Y-129540000D03*
X60960000Y-121920000D03*
X67310000Y-129540000D03*
X67310000Y-121920000D03*
X73660000Y-129540000D03*
X73660000Y-121920000D03*
X80010000Y-129540000D03*
X80010000Y-121920000D03*
X86360000Y-129540000D03*
X86360000Y-121920000D03*
X92710000Y-129540000D03*
X92710000Y-121920000D03*
X48260000Y-92710000D03*
X48260000Y-100330000D03*
D12*
X95250000Y-63500000D03*
X95250000Y-66040000D03*
X95250000Y-68580000D03*
X95250000Y-71120000D03*
X95250000Y-73660000D03*
X95250000Y-76200000D03*
X95250000Y-78740000D03*
X95250000Y-81280000D03*
X123190000Y-152400000D03*
X123190000Y-154940000D03*
X123190000Y-157480000D03*
X123190000Y-160020000D03*
X123190000Y-162560000D03*
X123190000Y-165100000D03*
X123190000Y-167640000D03*
X123190000Y-170180000D03*
D15*
X50800000Y-153670000D03*
X48260000Y-153670000D03*
X45720000Y-153670000D03*
X114300000Y-171450000D03*
X111760000Y-171450000D03*
X109220000Y-171450000D03*
X106680000Y-171450000D03*
X104140000Y-171450000D03*
X101600000Y-171450000D03*
X99060000Y-171450000D03*
X96520000Y-171450000D03*
X93980000Y-171450000D03*
X91440000Y-171450000D03*
X88900000Y-171450000D03*
X86360000Y-171450000D03*
X83820000Y-171450000D03*
X81280000Y-171450000D03*
X114300000Y-162560000D03*
X111760000Y-162560000D03*
X109220000Y-162560000D03*
X106680000Y-162560000D03*
X104140000Y-162560000D03*
X101600000Y-162560000D03*
X99060000Y-162560000D03*
X96520000Y-162560000D03*
X93980000Y-162560000D03*
X91440000Y-162560000D03*
X88900000Y-162560000D03*
X80010000Y-140970000D03*
X77470000Y-140970000D03*
X74930000Y-140970000D03*
X72390000Y-140970000D03*
X69850000Y-140970000D03*
X67310000Y-140970000D03*
X64770000Y-140970000D03*
X62230000Y-140970000D03*
X45720000Y-73660000D03*
X43180000Y-73660000D03*
X40640000Y-73660000D03*
X45720000Y-64770000D03*
X43180000Y-64770000D03*
X40640000Y-64770000D03*
D12*
X57150000Y-80010000D03*
X57150000Y-82550000D03*
X129540000Y-152400000D03*
X129540000Y-154940000D03*
X129540000Y-157480000D03*
X129540000Y-160020000D03*
X129540000Y-162560000D03*
X129540000Y-165100000D03*
X129540000Y-167640000D03*
X129540000Y-170180000D03*
D14*
X48260000Y-85090000D03*
X48260000Y-82550000D03*
X92710000Y-115570000D03*
X92710000Y-113030000D03*
X86360000Y-115570000D03*
X86360000Y-113030000D03*
X80010000Y-115570000D03*
X80010000Y-113030000D03*
X73660000Y-115570000D03*
X73660000Y-113030000D03*
X67310000Y-115570000D03*
X67310000Y-113030000D03*
X60960000Y-115570000D03*
X60960000Y-113030000D03*
X54610000Y-115570000D03*
X54610000Y-113030000D03*
X48260000Y-115570000D03*
X48260000Y-113030000D03*
X55880000Y-88265000D03*
X55880000Y-92075000D03*
X83820000Y-67310000D03*
X83820000Y-63500000D03*
X67945000Y-96520000D03*
X71755000Y-96520000D03*
X83820000Y-75565000D03*
X83820000Y-79375000D03*
X83820000Y-88265000D03*
X83820000Y-92075000D03*
D16*
X79375000Y-83820000D02*
X73660000Y-83820000D01*
X83820000Y-88265000D02*
X79375000Y-83820000D01*
X80645000Y-88900000D02*
X83820000Y-92075000D01*
X73660000Y-88900000D02*
X80645000Y-88900000D01*
X80645000Y-78740000D02*
X73660000Y-78740000D01*
X83820000Y-75565000D02*
X80645000Y-78740000D01*
X81915000Y-81280000D02*
X73660000Y-81280000D01*
X83820000Y-79375000D02*
X81915000Y-81280000D01*
X45720000Y-64770000D02*
X40640000Y-64770000D01*
X83820000Y-173970800D02*
X83820000Y-171450000D01*
X78720800Y-179070000D02*
X83820000Y-173970800D01*
X40640000Y-64770000D02*
X38779600Y-64770000D01*
X38779600Y-64770000D02*
X35560000Y-67989600D01*
X35560000Y-175260000D02*
X39370000Y-179070000D01*
X35560000Y-175260000D02*
X39370000Y-171450000D01*
X78720800Y-179070000D02*
X114300000Y-179070000D01*
X114300000Y-179070000D02*
X118110000Y-175260000D01*
X118110000Y-175260000D02*
X118110000Y-154940000D01*
X118110000Y-154940000D02*
X114300000Y-151130000D01*
X102870000Y-151130000D02*
X107950000Y-146050000D01*
X102870000Y-151130000D02*
X83820000Y-151130000D01*
X114300000Y-151130000D02*
X102870000Y-151130000D01*
X107950000Y-146050000D02*
X107950000Y-102870000D01*
X107950000Y-102870000D02*
X107950000Y-95250000D01*
X107950000Y-95250000D02*
X107950000Y-87630000D01*
X107950000Y-87630000D02*
X107950000Y-80010000D01*
X107950000Y-80010000D02*
X107950000Y-72390000D01*
X107950000Y-72390000D02*
X107950000Y-64770000D01*
X107950000Y-64770000D02*
X107950000Y-57150000D01*
X107950000Y-57150000D02*
X107950000Y-49530000D01*
X35560000Y-97790000D02*
X36830000Y-97790000D01*
X39370000Y-100330000D02*
X48260000Y-100330000D01*
X36830000Y-97790000D02*
X39370000Y-100330000D01*
X35560000Y-67989600D02*
X35560000Y-96520000D01*
X36830000Y-97790000D02*
X35560000Y-96520000D01*
X35560000Y-96520000D02*
X35560000Y-97790000D01*
X59690000Y-88900000D02*
X66040000Y-88900000D01*
X48260000Y-100330000D02*
X59690000Y-88900000D01*
X67945000Y-90805000D02*
X66040000Y-88900000D01*
X67945000Y-96520000D02*
X67945000Y-90805000D01*
X35560000Y-135890000D02*
X35560000Y-138430000D01*
X35560000Y-135890000D02*
X35560000Y-175260000D01*
X35560000Y-97790000D02*
X35560000Y-135890000D01*
X43180000Y-146050000D02*
X60960000Y-146050000D01*
X35560000Y-138430000D02*
X43180000Y-146050000D01*
X52070000Y-176530000D02*
X57150000Y-171450000D01*
X52070000Y-179070000D02*
X52070000Y-176530000D01*
X52070000Y-179070000D02*
X78720800Y-179070000D01*
X39370000Y-179070000D02*
X52070000Y-179070000D01*
X70739001Y-88659690D02*
X73038691Y-86360000D01*
X73038691Y-86360000D02*
X73660000Y-86360000D01*
X70739001Y-95504001D02*
X70739001Y-88659690D01*
X71755000Y-96520000D02*
X70739001Y-95504001D01*
X74930000Y-76200000D02*
X83820000Y-67310000D01*
X73660000Y-76200000D02*
X74930000Y-76200000D01*
X40640000Y-73660000D02*
X45720000Y-73660000D01*
X86360000Y-113030000D02*
X80010000Y-113030000D01*
X80010000Y-113030000D02*
X73660000Y-113030000D01*
X73660000Y-113030000D02*
X67310000Y-113030000D01*
X67310000Y-113030000D02*
X60960000Y-113030000D01*
X60960000Y-113030000D02*
X54610000Y-113030000D01*
X54610000Y-113030000D02*
X48260000Y-113030000D01*
X91440000Y-38100000D02*
X95250000Y-34290000D01*
X125313440Y-96520000D02*
X122481340Y-99352100D01*
X125730000Y-96520000D02*
X125313440Y-96520000D01*
X122897900Y-90462100D02*
X125730000Y-87630000D01*
X122481340Y-90462100D02*
X122897900Y-90462100D01*
X125730000Y-87630000D02*
X125730000Y-96520000D01*
X122897900Y-81572100D02*
X125730000Y-78740000D01*
X122481340Y-81572100D02*
X122897900Y-81572100D01*
X125730000Y-78740000D02*
X125730000Y-87630000D01*
X122897900Y-72682100D02*
X125730000Y-69850000D01*
X122481340Y-72682100D02*
X122897900Y-72682100D01*
X125730000Y-69850000D02*
X125730000Y-78740000D01*
X122897900Y-63792100D02*
X125730000Y-60960000D01*
X122481340Y-63792100D02*
X122897900Y-63792100D01*
X125730000Y-60960000D02*
X125730000Y-69850000D01*
X122897900Y-54902100D02*
X125730000Y-52070000D01*
X122481340Y-54902100D02*
X122897900Y-54902100D01*
X125730000Y-52070000D02*
X125730000Y-60960000D01*
X122897900Y-46012100D02*
X125730000Y-43180000D01*
X122481340Y-46012100D02*
X122897900Y-46012100D01*
X125730000Y-34290000D02*
X125730000Y-43180000D01*
X125730000Y-43180000D02*
X125730000Y-52070000D01*
X122897900Y-37122100D02*
X125730000Y-34290000D01*
X122481340Y-37122100D02*
X122897900Y-37122100D01*
X92710000Y-105410000D02*
X92710000Y-113030000D01*
X91440000Y-104140000D02*
X92710000Y-105410000D01*
X60960000Y-151130000D02*
X63500000Y-151130000D01*
X68580000Y-146050000D02*
X83820000Y-146050000D01*
X63500000Y-151130000D02*
X68580000Y-146050000D01*
X83820000Y-51663600D02*
X74066400Y-41910000D01*
X83820000Y-63500000D02*
X83820000Y-51663600D01*
X83820000Y-51663600D02*
X84226400Y-51663600D01*
X91440000Y-38100000D02*
X91440000Y-44450000D01*
X84226400Y-51663600D02*
X91440000Y-44450000D01*
X91440000Y-44450000D02*
X91440000Y-104140000D01*
X45720000Y-67931309D02*
X45720000Y-73660000D01*
X87630000Y-34290000D02*
X50800000Y-34290000D01*
X50800000Y-34290000D02*
X49530000Y-35560000D01*
X49530000Y-64121309D02*
X45720000Y-67931309D01*
X91440000Y-38100000D02*
X87630000Y-34290000D01*
X49530000Y-35560000D02*
X49530000Y-64121309D01*
X95250000Y-34290000D02*
X125730000Y-34290000D01*
X40640000Y-76180800D02*
X39370000Y-77450800D01*
X40640000Y-73660000D02*
X40640000Y-76180800D01*
X39370000Y-96520000D02*
X40640000Y-97790000D01*
X39370000Y-77450800D02*
X39370000Y-96520000D01*
X55848522Y-88265000D02*
X55880000Y-88265000D01*
X46323522Y-97790000D02*
X55848522Y-88265000D01*
X40640000Y-97790000D02*
X46323522Y-97790000D01*
X57785000Y-86360000D02*
X66040000Y-86360000D01*
X55880000Y-88265000D02*
X57785000Y-86360000D01*
X44450000Y-171450000D02*
X52070000Y-171450000D01*
X52070000Y-171450000D02*
X60960000Y-162560000D01*
X60960000Y-162560000D02*
X60960000Y-151130000D01*
X60960000Y-162560000D02*
X69850000Y-171450000D01*
X69850000Y-171450000D02*
X81280000Y-171450000D01*
X83820000Y-146050000D02*
X100330000Y-146050000D01*
X100330000Y-146050000D02*
X100330000Y-116840000D01*
X96520000Y-113030000D02*
X92710000Y-113030000D01*
X100330000Y-116840000D02*
X96520000Y-113030000D01*
X92710000Y-113030000D02*
X86360000Y-113030000D01*
X48260000Y-115570000D02*
X48260000Y-121920000D01*
X54610000Y-121920000D02*
X54610000Y-115570000D01*
X60960000Y-115570000D02*
X60960000Y-121920000D01*
X67310000Y-115570000D02*
X67310000Y-121920000D01*
X73660000Y-115570000D02*
X73660000Y-121920000D01*
X80010000Y-115570000D02*
X80010000Y-121920000D01*
X86360000Y-115570000D02*
X86360000Y-121920000D01*
X92710000Y-115570000D02*
X92710000Y-121920000D01*
X48260000Y-92710000D02*
X48260000Y-85090000D01*
X59690000Y-71120000D02*
X66040000Y-71120000D01*
X48260000Y-82550000D02*
X59690000Y-71120000D01*
X50800000Y-80010000D02*
X48260000Y-82550000D01*
X57150000Y-80010000D02*
X50800000Y-80010000D01*
X123190000Y-152400000D02*
X129540000Y-152400000D01*
X123190000Y-154940000D02*
X129540000Y-154940000D01*
X123190000Y-157480000D02*
X129540000Y-157480000D01*
X123190000Y-160020000D02*
X129540000Y-160020000D01*
X123190000Y-162560000D02*
X129540000Y-162560000D01*
X123190000Y-165100000D02*
X129540000Y-165100000D01*
X123190000Y-167640000D02*
X129540000Y-167640000D01*
X123190000Y-170180000D02*
X129540000Y-170180000D01*
X59670800Y-82550000D02*
X60960000Y-81260800D01*
X57150000Y-82550000D02*
X59670800Y-82550000D01*
X63519200Y-73660000D02*
X66040000Y-73660000D01*
X60960000Y-76219200D02*
X63519200Y-73660000D01*
X60960000Y-81260800D02*
X60960000Y-76219200D01*
X81280000Y-140970000D02*
X92710000Y-129540000D01*
X80010000Y-140970000D02*
X81280000Y-140970000D01*
X78241590Y-140198410D02*
X78241590Y-137658410D01*
X78241590Y-137658410D02*
X86360000Y-129540000D01*
X77470000Y-140970000D02*
X78241590Y-140198410D01*
X74930000Y-134620000D02*
X80010000Y-129540000D01*
X74930000Y-140970000D02*
X74930000Y-134620000D01*
X72390000Y-130810000D02*
X73660000Y-129540000D01*
X72390000Y-140970000D02*
X72390000Y-130810000D01*
X69850000Y-132080000D02*
X67310000Y-129540000D01*
X69850000Y-140970000D02*
X69850000Y-132080000D01*
X67310000Y-135890000D02*
X60960000Y-129540000D01*
X67310000Y-140970000D02*
X67310000Y-135890000D01*
X63998410Y-138928410D02*
X54610000Y-129540000D01*
X63998410Y-140198410D02*
X63998410Y-138928410D01*
X64770000Y-140970000D02*
X63998410Y-140198410D01*
X59690000Y-140970000D02*
X48260000Y-129540000D01*
X62230000Y-140970000D02*
X59690000Y-140970000D01*
X114300000Y-171450000D02*
X114300000Y-162560000D01*
X111760000Y-171450000D02*
X111760000Y-162560000D01*
X109220000Y-171450000D02*
X109220000Y-162560000D01*
X106680000Y-171450000D02*
X106680000Y-162560000D01*
X104140000Y-171450000D02*
X104140000Y-162560000D01*
X101600000Y-171450000D02*
X101600000Y-162560000D01*
X99060000Y-171450000D02*
X99060000Y-162560000D01*
X96520000Y-171450000D02*
X96520000Y-162560000D01*
X93980000Y-171450000D02*
X93980000Y-162560000D01*
X91440000Y-171450000D02*
X91440000Y-162560000D01*
X88900000Y-171450000D02*
X88900000Y-162560000D01*
X86360000Y-168929200D02*
X71120000Y-153689200D01*
X86360000Y-171450000D02*
X86360000Y-168929200D01*
X71120000Y-151130000D02*
X73660000Y-148590000D01*
X71120000Y-153689200D02*
X71120000Y-151130000D01*
X54610000Y-157480000D02*
X50800000Y-153670000D01*
X54610000Y-161290000D02*
X54610000Y-157480000D01*
X48260000Y-153670000D02*
X48260000Y-149860000D01*
X49530000Y-148590000D02*
X60960000Y-148590000D01*
X48260000Y-149860000D02*
X49530000Y-148590000D01*
X41910000Y-157480000D02*
X45720000Y-153670000D01*
X41910000Y-161290000D02*
X41910000Y-157480000D01*
X95250000Y-54610000D02*
X104140000Y-45720000D01*
X95250000Y-63500000D02*
X95250000Y-54610000D01*
X95871309Y-66040000D02*
X97790000Y-64121309D01*
X95250000Y-66040000D02*
X95871309Y-66040000D01*
X97790000Y-59690000D02*
X104140000Y-53340000D01*
X97790000Y-64121309D02*
X97790000Y-59690000D01*
X97291590Y-67808410D02*
X104140000Y-60960000D01*
X96021590Y-67808410D02*
X97291590Y-67808410D01*
X95250000Y-68580000D02*
X96021590Y-67808410D01*
X101600000Y-71120000D02*
X104140000Y-68580000D01*
X95250000Y-71120000D02*
X101600000Y-71120000D01*
X101600000Y-73660000D02*
X104140000Y-76200000D01*
X95250000Y-73660000D02*
X101600000Y-73660000D01*
X104140000Y-82569200D02*
X104140000Y-83820000D01*
X97770800Y-76200000D02*
X104140000Y-82569200D01*
X95250000Y-76200000D02*
X97770800Y-76200000D01*
X95250000Y-78740000D02*
X96021590Y-79511590D01*
X96642899Y-79511590D02*
X97790000Y-80658691D01*
X96021590Y-79511590D02*
X96642899Y-79511590D01*
X97790000Y-85090000D02*
X104140000Y-91440000D01*
X97790000Y-80658691D02*
X97790000Y-85090000D01*
X95250000Y-90170000D02*
X104140000Y-99060000D01*
X95250000Y-81280000D02*
X95250000Y-90170000D01*
X111760000Y-99060000D02*
X115570000Y-102870000D01*
X116547900Y-103847900D02*
X115570000Y-102870000D01*
X122481340Y-103847900D02*
X116547900Y-103847900D01*
X111760000Y-91440000D02*
X115570000Y-95250000D01*
X122189240Y-95250000D02*
X122481340Y-94957900D01*
X115570000Y-95250000D02*
X122189240Y-95250000D01*
X111760000Y-83820000D02*
X115570000Y-87630000D01*
X120919240Y-87630000D02*
X122481340Y-86067900D01*
X115570000Y-87630000D02*
X120919240Y-87630000D01*
X111760000Y-76200000D02*
X115570000Y-80010000D01*
X118402100Y-77177900D02*
X115570000Y-80010000D01*
X122481340Y-77177900D02*
X118402100Y-77177900D01*
X111760000Y-68580000D02*
X115570000Y-72390000D01*
X118379240Y-72390000D02*
X122481340Y-68287900D01*
X115570000Y-72390000D02*
X118379240Y-72390000D01*
X111760000Y-60960000D02*
X115570000Y-64770000D01*
X117109240Y-64770000D02*
X122481340Y-59397900D01*
X115570000Y-64770000D02*
X117109240Y-64770000D01*
X111760000Y-53340000D02*
X115570000Y-57150000D01*
X115839240Y-57150000D02*
X122481340Y-50507900D01*
X115570000Y-57150000D02*
X115839240Y-57150000D01*
X111760000Y-45720000D02*
X115570000Y-49530000D01*
X115570000Y-48529240D02*
X122481340Y-41617900D01*
X115570000Y-49530000D02*
X115570000Y-48529240D01*
X73660000Y-71120000D02*
X73660000Y-48260000D01*
X68580000Y-43180000D02*
X68580000Y-41910000D01*
X73660000Y-48260000D02*
X68580000Y-43180000D01*
X65836800Y-66497200D02*
X65836800Y-41910000D01*
X72999600Y-73660000D02*
X65836800Y-66497200D01*
X73660000Y-73660000D02*
X72999600Y-73660000D01*
M02*
